<svg id="visual" viewBox="0 0 900 600" width="900" height="600" xmlns="http://www.w3.org/2000/svg" xmlns:xlink="http://www.w3.org/1999/xlink" version="1.1"><rect x="0" y="0" width="900" height="600" fill="#F8C9DC"></rect><g fill="#E65579"><circle r="38" cx="262" cy="125"></circle><circle r="3" cx="296" cy="569"></circle><circle r="34" cx="700" cy="138"></circle><circle r="16" cx="373" cy="115"></circle><circle r="28" cx="168" cy="503"></circle><circle r="3" cx="120" cy="404"></circle><circle r="28" cx="561" cy="78"></circle><circle r="25" cx="484" cy="427"></circle><circle r="35" cx="204" cy="27"></circle><circle r="33" cx="656" cy="70"></circle><circle r="13" cx="5" cy="113"></circle><circle r="11" cx="30" cy="232"></circle><circle r="31" cx="191" cy="248"></circle><circle r="12" cx="727" cy="492"></circle><circle r="35" cx="238" cy="444"></circle><circle r="12" cx="685" cy="403"></circle><circle r="13" cx="412" cy="284"></circle><circle r="7" cx="604" cy="259"></circle><circle r="4" cx="481" cy="105"></circle><circle r="7" cx="770" cy="163"></circle><circle r="10" cx="747" cy="44"></circle><circle r="31" cx="326" cy="32"></circle><circle r="29" cx="73" cy="165"></circle><circle r="15" cx="624" cy="584"></circle><circle r="16" cx="793" cy="432"></circle><circle r="7" cx="498" cy="530"></circle><circle r="24" cx="112" cy="237"></circle><circle r="25" cx="335" cy="453"></circle><circle r="19" cx="298" cy="207"></circle><circle r="11" cx="383" cy="579"></circle><circle r="23" cx="78" cy="330"></circle><circle r="13" cx="411" cy="470"></circle><circle r="26" cx="329" cy="300"></circle><circle r="21" cx="444" cy="182"></circle><circle r="6" cx="798" cy="518"></circle><circle r="2" cx="71" cy="587"></circle><circle r="22" cx="137" cy="82"></circle><circle r="30" cx="574" cy="455"></circle><circle r="14" cx="822" cy="285"></circle><circle r="17" cx="404" cy="20"></circle><circle r="25" cx="8" cy="483"></circle><circle r="17" cx="539" cy="364"></circle><circle r="8" cx="254" cy="291"></circle><circle r="8" cx="847" cy="375"></circle><circle r="13" cx="186" cy="366"></circle><circle r="11" cx="832" cy="11"></circle><circle r="21" cx="867" cy="164"></circle><circle r="8" cx="888" cy="513"></circle><circle r="20" cx="557" cy="3"></circle><circle r="23" cx="400" cy="366"></circle><circle r="14" cx="192" cy="167"></circle><circle r="5" cx="832" cy="96"></circle><circle r="4" cx="497" cy="237"></circle><circle r="8" cx="41" cy="43"></circle><circle r="36" cx="722" cy="323"></circle><circle r="33" cx="693" cy="220"></circle><circle r="6" cx="536" cy="163"></circle><circle r="34" cx="292" cy="371"></circle><circle r="18" cx="737" cy="594"></circle><circle r="3" cx="881" cy="238"></circle><circle r="2" cx="623" cy="180"></circle><circle r="22" cx="221" cy="581"></circle><circle r="36" cx="83" cy="500"></circle><circle r="7" cx="899" cy="56"></circle><circle r="23" cx="2" cy="311"></circle><circle r="33" cx="829" cy="592"></circle><circle r="12" cx="13" cy="393"></circle><circle r="23" cx="480" cy="7"></circle><circle r="23" cx="617" cy="366"></circle><circle r="26" cx="640" cy="501"></circle><circle r="14" cx="896" cy="437"></circle><circle r="5" cx="113" cy="2"></circle><circle r="12" cx="899" cy="310"></circle><circle r="27" cx="467" cy="599"></circle></g></svg>