<svg id="visual" viewBox="0 0 900 600" width="900" height="600" xmlns="http://www.w3.org/2000/svg" xmlns:xlink="http://www.w3.org/1999/xlink" version="1.1"><rect x="0" y="0" width="900" height="600" fill="#F8C9DC"></rect><g fill="#E65579"><circle r="14" cx="590" cy="168"></circle><circle r="1" cx="252" cy="442"></circle><circle r="1" cx="820" cy="156"></circle><circle r="2" cx="266" cy="577"></circle><circle r="10" cx="567" cy="528"></circle><circle r="3" cx="411" cy="104"></circle><circle r="8" cx="585" cy="271"></circle><circle r="12" cx="598" cy="354"></circle><circle r="10" cx="125" cy="460"></circle><circle r="6" cx="743" cy="356"></circle><circle r="1" cx="179" cy="151"></circle><circle r="10" cx="696" cy="357"></circle><circle r="0" cx="849" cy="285"></circle><circle r="4" cx="858" cy="491"></circle><circle r="12" cx="208" cy="413"></circle><circle r="10" cx="505" cy="375"></circle><circle r="10" cx="18" cy="99"></circle><circle r="7" cx="145" cy="357"></circle><circle r="5" cx="852" cy="391"></circle><circle r="12" cx="811" cy="593"></circle><circle r="4" cx="63" cy="440"></circle><circle r="6" cx="856" cy="437"></circle><circle r="7" cx="150" cy="160"></circle><circle r="4" cx="114" cy="338"></circle><circle r="0" cx="714" cy="210"></circle><circle r="4" cx="525" cy="506"></circle><circle r="9" cx="600" cy="126"></circle><circle r="4" cx="389" cy="352"></circle><circle r="1" cx="288" cy="437"></circle><circle r="1" cx="329" cy="464"></circle><circle r="1" cx="794" cy="435"></circle><circle r="3" cx="626" cy="234"></circle><circle r="2" cx="655" cy="435"></circle><circle r="1" cx="302" cy="310"></circle><circle r="10" cx="69" cy="128"></circle><circle r="7" cx="505" cy="42"></circle><circle r="4" cx="629" cy="581"></circle><circle r="0" cx="664" cy="98"></circle><circle r="10" cx="471" cy="444"></circle><circle r="11" cx="686" cy="400"></circle><circle r="9" cx="26" cy="151"></circle><circle r="0" cx="150" cy="200"></circle><circle r="10" cx="565" cy="415"></circle><circle r="1" cx="403" cy="312"></circle><circle r="2" cx="16" cy="516"></circle><circle r="12" cx="626" cy="290"></circle><circle r="5" cx="748" cy="405"></circle><circle r="10" cx="88" cy="425"></circle><circle r="0" cx="92" cy="276"></circle><circle r="12" cx="249" cy="362"></circle><circle r="4" cx="790" cy="153"></circle><circle r="8" cx="215" cy="162"></circle><circle r="1" cx="641" cy="524"></circle><circle r="8" cx="725" cy="84"></circle><circle r="10" cx="175" cy="453"></circle><circle r="1" cx="439" cy="556"></circle><circle r="10" cx="843" cy="169"></circle><circle r="6" cx="798" cy="520"></circle><circle r="9" cx="767" cy="217"></circle><circle r="6" cx="244" cy="538"></circle><circle r="8" cx="277" cy="86"></circle><circle r="11" cx="538" cy="75"></circle><circle r="9" cx="834" cy="13"></circle><circle r="11" cx="295" cy="165"></circle><circle r="1" cx="154" cy="294"></circle><circle r="2" cx="716" cy="45"></circle><circle r="10" cx="451" cy="585"></circle><circle r="7" cx="476" cy="327"></circle><circle r="12" cx="318" cy="501"></circle><circle r="3" cx="806" cy="387"></circle><circle r="8" cx="461" cy="387"></circle><circle r="10" cx="325" cy="296"></circle><circle r="2" cx="615" cy="384"></circle><circle r="0" cx="126" cy="246"></circle><circle r="11" cx="467" cy="123"></circle><circle r="4" cx="91" cy="374"></circle><circle r="5" cx="368" cy="444"></circle><circle r="0" cx="418" cy="265"></circle><circle r="1" cx="557" cy="136"></circle><circle r="9" cx="229" cy="589"></circle><circle r="5" cx="538" cy="292"></circle><circle r="0" cx="185" cy="212"></circle><circle r="6" cx="645" cy="466"></circle><circle r="11" cx="529" cy="457"></circle><circle r="12" cx="412" cy="466"></circle><circle r="7" cx="886" cy="132"></circle><circle r="4" cx="444" cy="292"></circle><circle r="5" cx="135" cy="111"></circle><circle r="5" cx="610" cy="486"></circle><circle r="0" cx="368" cy="120"></circle><circle r="1" cx="719" cy="256"></circle><circle r="7" cx="359" cy="212"></circle><circle r="2" cx="370" cy="489"></circle><circle r="4" cx="45" cy="563"></circle><circle r="1" cx="750" cy="118"></circle><circle r="3" cx="729" cy="581"></circle><circle r="10" cx="222" cy="482"></circle><circle r="0" cx="6" cy="261"></circle><circle r="2" cx="344" cy="485"></circle><circle r="8" cx="675" cy="469"></circle><circle r="7" cx="167" cy="42"></circle><circle r="6" cx="533" cy="107"></circle><circle r="1" cx="820" cy="186"></circle><circle r="2" cx="163" cy="329"></circle><circle r="11" cx="47" cy="187"></circle><circle r="11" cx="85" cy="568"></circle><circle r="8" cx="6" cy="487"></circle><circle r="2" cx="131" cy="590"></circle><circle r="3" cx="75" cy="506"></circle><circle r="0" cx="485" cy="185"></circle><circle r="6" cx="878" cy="407"></circle><circle r="8" cx="840" cy="261"></circle><circle r="11" cx="250" cy="333"></circle><circle r="6" cx="171" cy="1"></circle><circle r="7" cx="585" cy="552"></circle><circle r="9" cx="657" cy="252"></circle><circle r="11" cx="771" cy="288"></circle><circle r="9" cx="734" cy="186"></circle><circle r="1" cx="105" cy="108"></circle><circle r="8" cx="711" cy="530"></circle><circle r="1" cx="870" cy="585"></circle><circle r="2" cx="254" cy="112"></circle><circle r="11" cx="74" cy="211"></circle><circle r="6" cx="697" cy="23"></circle><circle r="9" cx="809" cy="237"></circle><circle r="5" cx="360" cy="299"></circle><circle r="3" cx="24" cy="414"></circle><circle r="11" cx="327" cy="374"></circle><circle r="2" cx="120" cy="547"></circle><circle r="11" cx="353" cy="41"></circle><circle r="9" cx="850" cy="326"></circle><circle r="9" cx="762" cy="87"></circle><circle r="5" cx="392" cy="422"></circle><circle r="10" cx="887" cy="222"></circle><circle r="2" cx="857" cy="93"></circle><circle r="0" cx="320" cy="24"></circle><circle r="7" cx="825" cy="361"></circle><circle r="12" cx="548" cy="492"></circle><circle r="5" cx="722" cy="149"></circle><circle r="0" cx="113" cy="413"></circle><circle r="1" cx="615" cy="7"></circle><circle r="0" cx="168" cy="531"></circle><circle r="6" cx="319" cy="337"></circle><circle r="10" cx="205" cy="359"></circle><circle r="3" cx="893" cy="567"></circle><circle r="5" cx="409" cy="213"></circle><circle r="7" cx="555" cy="571"></circle><circle r="5" cx="760" cy="5"></circle><circle r="4" cx="291" cy="34"></circle><circle r="0" cx="317" cy="59"></circle><circle r="0" cx="104" cy="482"></circle><circle r="5" cx="684" cy="266"></circle><circle r="0" cx="273" cy="299"></circle><circle r="10" cx="108" cy="29"></circle><circle r="5" cx="709" cy="295"></circle><circle r="1" cx="383" cy="540"></circle><circle r="11" cx="499" cy="245"></circle><circle r="12" cx="620" cy="554"></circle><circle r="3" cx="297" cy="256"></circle><circle r="1" cx="425" cy="341"></circle><circle r="5" cx="229" cy="25"></circle><circle r="8" cx="728" cy="483"></circle><circle r="12" cx="549" cy="215"></circle><circle r="1" cx="874" cy="308"></circle><circle r="3" cx="828" cy="548"></circle><circle r="12" cx="760" cy="38"></circle><circle r="0" cx="624" cy="111"></circle><circle r="3" cx="752" cy="162"></circle><circle r="11" cx="417" cy="58"></circle><circle r="8" cx="198" cy="245"></circle><circle r="2" cx="192" cy="288"></circle><circle r="6" cx="214" cy="455"></circle><circle r="8" cx="823" cy="84"></circle><circle r="0" cx="261" cy="42"></circle><circle r="6" cx="175" cy="414"></circle><circle r="7" cx="170" cy="484"></circle><circle r="9" cx="581" cy="209"></circle><circle r="7" cx="675" cy="215"></circle><circle r="4" cx="794" cy="354"></circle><circle r="11" cx="90" cy="239"></circle><circle r="3" cx="4" cy="345"></circle><circle r="1" cx="804" cy="32"></circle><circle r="9" cx="473" cy="489"></circle><circle r="8" cx="45" cy="116"></circle><circle r="0" cx="522" cy="162"></circle><circle r="6" cx="711" cy="439"></circle><circle r="3" cx="893" cy="80"></circle><circle r="5" cx="502" cy="330"></circle><circle r="9" cx="229" cy="246"></circle><circle r="7" cx="542" cy="396"></circle><circle r="0" cx="656" cy="166"></circle><circle r="7" cx="13" cy="461"></circle><circle r="11" cx="750" cy="530"></circle><circle r="3" cx="840" cy="220"></circle><circle r="0" cx="381" cy="197"></circle><circle r="9" cx="767" cy="324"></circle><circle r="3" cx="324" cy="134"></circle><circle r="10" cx="287" cy="348"></circle><circle r="3" cx="502" cy="409"></circle><circle r="10" cx="409" cy="596"></circle><circle r="0" cx="41" cy="598"></circle><circle r="10" cx="805" cy="285"></circle><circle r="8" cx="680" cy="580"></circle><circle r="5" cx="317" cy="536"></circle><circle r="10" cx="795" cy="99"></circle><circle r="1" cx="241" cy="510"></circle><circle r="11" cx="448" cy="7"></circle><circle r="6" cx="600" cy="406"></circle><circle r="6" cx="210" cy="558"></circle><circle r="5" cx="557" cy="336"></circle><circle r="4" cx="633" cy="45"></circle><circle r="1" cx="765" cy="588"></circle><circle r="6" cx="401" cy="387"></circle><circle r="2" cx="362" cy="5"></circle><circle r="1" cx="494" cy="581"></circle><circle r="0" cx="43" cy="232"></circle><circle r="5" cx="879" cy="525"></circle><circle r="9" cx="579" cy="78"></circle><circle r="12" cx="572" cy="298"></circle><circle r="2" cx="513" cy="543"></circle><circle r="5" cx="331" cy="180"></circle><circle r="10" cx="620" cy="329"></circle><circle r="11" cx="5" cy="192"></circle><circle r="7" cx="871" cy="43"></circle><circle r="5" cx="457" cy="207"></circle><circle r="3" cx="587" cy="23"></circle><circle r="0" cx="131" cy="518"></circle><circle r="0" cx="505" cy="127"></circle><circle r="10" cx="482" cy="294"></circle><circle r="6" cx="660" cy="405"></circle><circle r="4" cx="140" cy="39"></circle><circle r="10" cx="162" cy="571"></circle><circle r="4" cx="96" cy="151"></circle><circle r="3" cx="844" cy="51"></circle><circle r="11" cx="898" cy="273"></circle><circle r="1" cx="273" cy="149"></circle><circle r="5" cx="654" cy="339"></circle><circle r="10" cx="561" cy="23"></circle><circle r="1" cx="824" cy="511"></circle><circle r="6" cx="517" cy="16"></circle><circle r="6" cx="304" cy="105"></circle><circle r="0" cx="568" cy="597"></circle><circle r="7" cx="135" cy="392"></circle><circle r="10" cx="662" cy="290"></circle><circle r="8" cx="695" cy="240"></circle><circle r="12" cx="99" cy="74"></circle><circle r="12" cx="64" cy="477"></circle><circle r="1" cx="364" cy="564"></circle><circle r="12" cx="700" cy="71"></circle><circle r="0" cx="393" cy="169"></circle><circle r="2" cx="727" cy="10"></circle><circle r="9" cx="42" cy="364"></circle><circle r="8" cx="458" cy="86"></circle><circle r="0" cx="128" cy="283"></circle><circle r="5" cx="562" cy="450"></circle><circle r="5" cx="475" cy="34"></circle><circle r="0" cx="690" cy="125"></circle><circle r="11" cx="258" cy="406"></circle><circle r="10" cx="80" cy="311"></circle><circle r="2" cx="344" cy="268"></circle><circle r="5" cx="344" cy="423"></circle><circle r="12" cx="788" cy="199"></circle><circle r="12" cx="12" cy="17"></circle><circle r="11" cx="66" cy="587"></circle><circle r="7" cx="631" cy="203"></circle><circle r="1" cx="353" cy="520"></circle><circle r="8" cx="51" cy="289"></circle><circle r="11" cx="480" cy="225"></circle><circle r="4" cx="512" cy="82"></circle><circle r="1" cx="361" cy="169"></circle><circle r="2" cx="402" cy="143"></circle><circle r="8" cx="645" cy="137"></circle><circle r="11" cx="528" cy="197"></circle><circle r="7" cx="203" cy="331"></circle><circle r="1" cx="396" cy="27"></circle><circle r="9" cx="45" cy="20"></circle><circle r="5" cx="174" cy="83"></circle><circle r="1" cx="327" cy="237"></circle><circle r="5" cx="173" cy="185"></circle><circle r="9" cx="344" cy="95"></circle><circle r="7" cx="296" cy="579"></circle><circle r="2" cx="285" cy="517"></circle><circle r="2" cx="641" cy="2"></circle><circle r="11" cx="51" cy="88"></circle><circle r="6" cx="201" cy="589"></circle><circle r="1" cx="463" cy="529"></circle><circle r="8" cx="15" cy="224"></circle><circle r="8" cx="299" cy="411"></circle><circle r="12" cx="434" cy="412"></circle><circle r="6" cx="686" cy="517"></circle><circle r="11" cx="262" cy="208"></circle><circle r="10" cx="203" cy="72"></circle><circle r="4" cx="355" cy="356"></circle><circle r="9" cx="480" cy="63"></circle><circle r="2" cx="455" cy="346"></circle><circle r="3" cx="896" cy="27"></circle><circle r="0" cx="676" cy="375"></circle><circle r="6" cx="868" cy="183"></circle><circle r="12" cx="852" cy="531"></circle><circle r="12" cx="462" cy="248"></circle><circle r="6" cx="686" cy="47"></circle><circle r="1" cx="804" cy="489"></circle><circle r="6" cx="20" cy="283"></circle><circle r="3" cx="698" cy="328"></circle><circle r="2" cx="486" cy="547"></circle><circle r="1" cx="192" cy="384"></circle><circle r="4" cx="880" cy="351"></circle><circle r="8" cx="664" cy="537"></circle><circle r="9" cx="895" cy="483"></circle><circle r="5" cx="818" cy="121"></circle><circle r="5" cx="250" cy="264"></circle><circle r="5" cx="785" cy="560"></circle><circle r="12" cx="450" cy="49"></circle><circle r="10" cx="512" cy="303"></circle><circle r="4" cx="155" cy="260"></circle><circle r="9" cx="330" cy="588"></circle><circle r="10" cx="27" cy="386"></circle><circle r="10" cx="769" cy="483"></circle><circle r="1" cx="430" cy="193"></circle><circle r="4" cx="609" cy="83"></circle><circle r="2" cx="542" cy="4"></circle><circle r="0" cx="737" cy="235"></circle><circle r="11" cx="427" cy="533"></circle><circle r="4" cx="766" cy="255"></circle><circle r="6" cx="268" cy="5"></circle><circle r="7" cx="381" cy="279"></circle><circle r="7" cx="562" cy="173"></circle><circle r="9" cx="3" cy="545"></circle><circle r="1" cx="653" cy="499"></circle><circle r="10" cx="102" cy="203"></circle><circle r="11" cx="402" cy="500"></circle><circle r="8" cx="144" cy="66"></circle><circle r="0" cx="93" cy="457"></circle><circle r="7" cx="298" cy="214"></circle><circle r="3" cx="131" cy="434"></circle><circle r="12" cx="709" cy="388"></circle><circle r="1" cx="526" cy="580"></circle><circle r="6" cx="555" cy="53"></circle><circle r="8" cx="766" cy="452"></circle><circle r="9" cx="281" cy="544"></circle><circle r="1" cx="217" cy="303"></circle><circle r="0" cx="195" cy="500"></circle><circle r="11" cx="325" cy="208"></circle><circle r="6" cx="425" cy="32"></circle><circle r="8" cx="729" cy="549"></circle><circle r="5" cx="31" cy="322"></circle><circle r="8" cx="355" cy="326"></circle><circle r="10" cx="698" cy="180"></circle><circle r="12" cx="370" cy="249"></circle><circle r="4" cx="740" cy="288"></circle><circle r="7" cx="397" cy="244"></circle><circle r="10" cx="424" cy="128"></circle><circle r="12" cx="49" cy="263"></circle><circle r="9" cx="440" cy="158"></circle><circle r="4" cx="73" cy="534"></circle><circle r="11" cx="646" cy="558"></circle><circle r="4" cx="53" cy="45"></circle><circle r="12" cx="218" cy="129"></circle><circle r="11" cx="317" cy="430"></circle><circle r="12" cx="464" cy="415"></circle><circle r="10" cx="284" cy="478"></circle><circle r="9" cx="98" cy="524"></circle><circle r="1" cx="439" cy="469"></circle><circle r="3" cx="201" cy="35"></circle><circle r="9" cx="591" cy="463"></circle><circle r="4" cx="681" cy="429"></circle><circle r="4" cx="523" cy="260"></circle><circle r="7" cx="769" cy="379"></circle><circle r="10" cx="844" cy="463"></circle><circle r="11" cx="815" cy="464"></circle><circle r="4" cx="567" cy="245"></circle><circle r="10" cx="847" cy="119"></circle><circle r="0" cx="872" cy="8"></circle><circle r="0" cx="375" cy="92"></circle><circle r="2" cx="208" cy="525"></circle><circle r="3" cx="559" cy="372"></circle><circle r="0" cx="823" cy="421"></circle><circle r="11" cx="246" cy="66"></circle><circle r="3" cx="120" cy="3"></circle><circle r="9" cx="243" cy="185"></circle><circle r="3" cx="77" cy="351"></circle><circle r="10" cx="4" cy="126"></circle><circle r="10" cx="11" cy="68"></circle><circle r="0" cx="625" cy="430"></circle><circle r="4" cx="227" cy="388"></circle><circle r="9" cx="368" cy="390"></circle><circle r="0" cx="60" cy="154"></circle><circle r="10" cx="118" cy="370"></circle><circle r="1" cx="846" cy="597"></circle><circle r="11" cx="728" cy="510"></circle><circle r="9" cx="524" cy="228"></circle><circle r="11" cx="165" cy="109"></circle><circle r="6" cx="333" cy="560"></circle><circle r="7" cx="487" cy="148"></circle><circle r="8" cx="884" cy="450"></circle><circle r="12" cx="281" cy="377"></circle><circle r="6" cx="532" cy="350"></circle><circle r="2" cx="747" cy="62"></circle><circle r="1" cx="781" cy="405"></circle><circle r="5" cx="531" cy="323"></circle><circle r="10" cx="724" cy="325"></circle><circle r="11" cx="894" cy="325"></circle><circle r="12" cx="648" cy="68"></circle><circle r="1" cx="601" cy="585"></circle><circle r="9" cx="497" cy="473"></circle><circle r="5" cx="449" cy="503"></circle><circle r="0" cx="117" cy="181"></circle><circle r="7" cx="623" cy="173"></circle><circle r="10" cx="5" cy="596"></circle><circle r="1" cx="8" cy="307"></circle><circle r="8" cx="853" cy="558"></circle><circle r="10" cx="882" cy="249"></circle><circle r="12" cx="84" cy="49"></circle><circle r="2" cx="538" cy="533"></circle><circle r="12" cx="387" cy="53"></circle><circle r="7" cx="66" cy="391"></circle><circle r="10" cx="694" cy="488"></circle><circle r="8" cx="597" cy="308"></circle><circle r="1" cx="302" cy="5"></circle><circle r="9" cx="242" cy="145"></circle><circle r="11" cx="95" cy="598"></circle><circle r="2" cx="807" cy="5"></circle><circle r="12" cx="612" cy="521"></circle><circle r="1" cx="899" cy="177"></circle><circle r="8" cx="688" cy="153"></circle><circle r="2" cx="414" cy="437"></circle><circle r="10" cx="168" cy="232"></circle><circle r="2" cx="164" cy="384"></circle><circle r="3" cx="825" cy="307"></circle><circle r="6" cx="284" cy="123"></circle><circle r="9" cx="798" cy="317"></circle><circle r="2" cx="659" cy="35"></circle><circle r="6" cx="654" cy="591"></circle><circle r="11" cx="505" cy="441"></circle><circle r="2" cx="559" cy="95"></circle><circle r="3" cx="598" cy="241"></circle><circle r="1" cx="894" cy="598"></circle><circle r="6" cx="804" cy="61"></circle><circle r="6" cx="704" cy="560"></circle><circle r="5" cx="284" cy="190"></circle><circle r="9" cx="548" cy="268"></circle><circle r="7" cx="867" cy="151"></circle><circle r="7" cx="585" cy="500"></circle><circle r="8" cx="273" cy="233"></circle><circle r="7" cx="489" cy="4"></circle><circle r="2" cx="629" cy="358"></circle><circle r="3" cx="432" cy="374"></circle><circle r="11" cx="221" cy="272"></circle><circle r="3" cx="250" cy="477"></circle><circle r="0" cx="632" cy="264"></circle><circle r="4" cx="70" cy="9"></circle><circle r="5" cx="246" cy="293"></circle><circle r="7" cx="401" cy="565"></circle><circle r="7" cx="371" cy="591"></circle><circle r="11" cx="106" cy="299"></circle><circle r="3" cx="171" cy="357"></circle><circle r="2" cx="133" cy="320"></circle><circle r="0" cx="740" cy="434"></circle><circle r="2" cx="898" cy="379"></circle><circle r="9" cx="221" cy="102"></circle><circle r="11" cx="210" cy="197"></circle><circle r="4" cx="20" cy="571"></circle><circle r="11" cx="898" cy="425"></circle><circle r="11" cx="79" cy="184"></circle><circle r="12" cx="591" cy="431"></circle><circle r="10" cx="39" cy="503"></circle><circle r="12" cx="42" cy="535"></circle><circle r="0" cx="141" cy="482"></circle><circle r="7" cx="435" cy="221"></circle><circle r="7" cx="116" cy="132"></circle><circle r="5" cx="351" cy="144"></circle><circle r="7" cx="703" cy="102"></circle><circle r="11" cx="501" cy="518"></circle><circle r="10" cx="289" cy="62"></circle><circle r="3" cx="676" cy="7"></circle><circle r="9" cx="155" cy="134"></circle><circle r="6" cx="852" cy="354"></circle><circle r="1" cx="450" cy="318"></circle><circle r="6" cx="777" cy="129"></circle><circle r="3" cx="643" cy="313"></circle><circle r="6" cx="607" cy="52"></circle><circle r="10" cx="772" cy="513"></circle><circle r="4" cx="457" cy="180"></circle><circle r="12" cx="484" cy="91"></circle><circle r="8" cx="123" cy="85"></circle><circle r="0" cx="25" cy="46"></circle><circle r="1" cx="77" cy="101"></circle><circle r="3" cx="643" cy="383"></circle><circle r="9" cx="413" cy="6"></circle><circle r="10" cx="233" cy="220"></circle><circle r="5" cx="498" cy="272"></circle><circle r="1" cx="442" cy="440"></circle><circle r="5" cx="530" cy="424"></circle><circle r="3" cx="189" cy="124"></circle><circle r="8" cx="488" cy="352"></circle><circle r="4" cx="200" cy="4"></circle><circle r="7" cx="173" cy="597"></circle><circle r="5" cx="706" cy="597"></circle><circle r="5" cx="4" cy="435"></circle><circle r="4" cx="298" cy="284"></circle><circle r="11" cx="778" cy="63"></circle><circle r="2" cx="672" cy="187"></circle><circle r="8" cx="53" cy="414"></circle><circle r="4" cx="345" cy="67"></circle><circle r="0" cx="41" cy="459"></circle><circle r="11" cx="325" cy="401"></circle><circle r="3" cx="57" cy="334"></circle><circle r="0" cx="587" cy="380"></circle><circle r="4" cx="616" cy="148"></circle><circle r="7" cx="399" cy="78"></circle><circle r="6" cx="761" cy="190"></circle><circle r="3" cx="757" cy="556"></circle><circle r="7" cx="501" cy="207"></circle><circle r="2" cx="386" cy="465"></circle><circle r="8" cx="1" cy="162"></circle><circle r="7" cx="111" cy="573"></circle><circle r="12" cx="233" cy="423"></circle><circle r="0" cx="898" cy="55"></circle><circle r="10" cx="123" cy="220"></circle><circle r="10" cx="428" cy="83"></circle><circle r="2" cx="673" cy="318"></circle><circle r="9" cx="147" cy="14"></circle><circle r="12" cx="2" cy="400"></circle><circle r="10" cx="721" cy="122"></circle><circle r="1" cx="899" cy="108"></circle><circle r="6" cx="265" cy="500"></circle><circle r="9" cx="794" cy="259"></circle></g></svg>